:SAMPLES-PER-SECOND 30
:FULLY-SPECIFIED
:DEGREES
63
root  -61.2947 39.0369 -1.46214 -3.83184 76.483 -3.57916
RightUpLeg  -27.4195 -13.9368 2.79436
RightLeg  24.8093 -4.10466 -2.2909
RightFoot  1.29833 0.274983 -2.42926
RightToes  0.000482159 0.542163 -0.142577
Spine  14.4955 -2.50982 2.01805
Spine1  2.33369 -3.26304 3.21121
HEad  -10.3403 10.0293 -5.92521
LeftShoulder1  6.93799 -10.3599 -43.5274
LeftArm  -9.71508 0.179142 -39.4268
LeftForeArm  38.4608 -14.2931 -4.50753
LeftHand  -0.25398 0.0180481 5.50724
RightShoulder  4.21822 7.45362 32.5538
RightArm  -11.8717 -22.8936 44.4075
RightForeArm  19.0432 8.65048 5.50627
RightHand  -1.157 2.23207 -17.7483
LeftUpLeg  18.4177 9.95828 6.52944
LeftLeg  11.945 10.0397 -0.767008
LeftFoot  -21.9262 -0.830027 -10.3432
LeftToes  1.06245e-005 4.65855e-005 -8.18503e-006
64
root  -59.9342 38.9361 -0.84774 -8.1527 76.472 -7.8373
RightUpLeg  -26.5916 -13.029 3.69543
RightLeg  28.4735 -4.96122 -3.13981
RightFoot  -1.61722 0.318824 -3.88047
RightToes  0.000482159 0.542163 -0.142577
Spine  14.9103 -3.08373 3.22906
Spine1  1.78954 -3.84314 4.33848
HEad  -10.3562 11.434 -6.93199
LeftShoulder1  7.04788 -10.5076 -43.7647
LeftArm  -7.46824 1.05594 -39.3688
LeftForeArm  38.4394 -17.1883 -3.99307
LeftHand  -0.25398 0.0180481 5.50724
RightShoulder  4.3381 7.58956 33.1617
RightArm  -11.1591 -23.6659 43.7362
RightForeArm  19.9072 8.02323 5.59442
RightHand  -1.04278 1.5888 -17.4386
LeftUpLeg  19.4294 12.0226 9.15347
LeftLeg  14.8442 6.16018 0.808972
LeftFoot  -20.2978 -1.08519 -15.5482
LeftToes  1.06245e-005 4.65855e-005 -8.18503e-006
65
root  -58.5817 38.9044 -0.204951 -10.1353 75.9503 -9.8313
RightUpLeg  -25.3041 -12.3981 4.35785
RightLeg  31.0637 -5.27611 -3.66198
RightFoot  -5.08448 0.222699 -4.66674
RightToes  0.000482159 0.542163 -0.142577
Spine  14.5371 -3.38596 4.26919
Spine1  2.24156 -4.0155 4.96271
HEad  -10.1078 12.406 -7.51958
LeftShoulder1  7.10045 -10.5786 -43.8751
LeftArm  -6.14728 2.01492 -38.7819
LeftForeArm  38.5762 -20.0336 -3.34673
LeftHand  -0.25398 0.0180481 5.50724
RightShoulder  4.44048 7.73299 33.5723
RightArm  -11.8155 -23.3996 43.1695
RightForeArm  20.1103 6.94258 5.27775
RightHand  -0.936419 1.01845 -17.0213
LeftUpLeg  17.8356 11.3113 9.88532
LeftLeg  21.5787 6.49522 3.40522
LeftFoot  -15.5341 -0.6457 -20.2218
LeftToes  1.06245e-005 4.65855e-005 -8.18503e-006
66
root  -57.2938 38.9571 0.407955 -11.1644 75.3471 -11.1946
RightUpLeg  -23.7088 -12.4244 4.97842
RightLeg  32.2399 -4.96339 -3.61817
RightFoot  -7.64487 0.101373 -4.71251
RightToes  0.000482159 0.542163 -0.142577
Spine  13.2863 -3.46676 5.8627
Spine1  3.40365 -3.77613 4.59352
HEad  -9.50104 12.6287 -7.51909
LeftShoulder1  7.06142 -10.5869 -43.5938
LeftArm  -6.4379 2.58665 -38.3597
LeftForeArm  38.851 -22.028 -3.0383
LeftHand  -0.25398 0.0180481 5.50724
RightShoulder  4.49555 7.88545 33.5273
RightArm  -13.1753 -22.5692 42.9522
RightForeArm  19.502 6.47033 4.85945
RightHand  -0.849878 0.621192 -16.4516
LeftUpLeg  12.6426 7.82821 8.93665
LeftLeg  32.6534 10.2754 7.37217
LeftFoot  -6.06167 0.735117 -17.2386
LeftToes  1.06245e-005 4.65855e-005 -8.18503e-006
67
root  -56.0925 39.0273 0.943872 -13.1738 74.881 -13.5852
RightUpLeg  -21.8455 -12.8854 5.71339
RightLeg  32.5958 -4.43161 -3.30554
RightFoot  -9.67113 -0.00111537 -4.39384
RightToes  0.000482159 0.542163 -0.142577
Spine  12.3134 -3.41604 8.17812
Spine1  4.24478 -3.17176 3.84664
HEad  -8.60892 12.2773 -7.03327
LeftShoulder1  7.00054 -10.6049 -43.1386
LeftArm  -7.6448 3.06254 -38.1783
LeftForeArm  38.7201 -23.5354 -3.07792
LeftHand  -0.25398 0.0180481 5.50724
RightShoulder  4.50374 7.95698 33.353
RightArm  -13.557 -21.4738 42.2238
RightForeArm  17.6098 7.22986 4.91566
RightHand  -0.815257 0.481523 -16.1521
LeftUpLeg  5.64999 5.48278 8.32941
LeftLeg  44.3622 9.96999 10.5657
LeftFoot  4.15516 0.955317 -7.06381
LeftToes  1.06245e-005 4.65855e-005 -8.18503e-006
68
root  -54.9149 39.1637 1.4528 -14.1825 74.3794 -14.6177
RightUpLeg  -19.2379 -13.2716 5.93782
RightLeg  32.0571 -3.85265 -2.86077
RightFoot  -11.5901 -0.0872826 -4.09084
RightToes  0.000482159 0.542163 -0.142577
Spine  12.2224 -3.05391 9.68809
Spine1  4.21369 -2.363 3.57702
HEad  -7.66322 11.4956 -6.43474
LeftShoulder1  7.0004 -10.6566 -42.9706
LeftArm  -9.2117 3.99299 -37.7414
LeftForeArm  38.2715 -25.357 -3.42362
LeftHand  -0.25398 0.0180481 5.50724
RightShoulder  4.50088 7.91023 33.4886
RightArm  -12.1748 -19.8659 40.3239
RightForeArm  15.0156 8.75336 5.47473
RightHand  -0.860788 0.634194 -16.6205
LeftUpLeg  -0.880976 4.25332 7.75162
LeftLeg  53.0977 6.94962 10.2589
LeftFoot  8.18319 0.0133106 -0.158354
LeftToes  1.06245e-005 4.65855e-005 -8.18503e-006
69
root  -53.6524 39.4764 2.01524 -11.575 73.7568 -11.7605
RightUpLeg  -15.5377 -13.4663 4.999
RightLeg  29.9327 -3.08492 -2.18406
RightFoot  -12.936 -0.140782 -3.82905
RightToes  0.000482159 0.542163 -0.142577
Spine  12.2457 -2.27551 9.26783
Spine1  3.74226 -1.53534 3.65856
HEad  -6.72042 10.5149 -6.16643
LeftShoulder1  7.04189 -10.6958 -43.115
LeftArm  -10.5856 5.45455 -36.8553
LeftForeArm  37.8326 -27.6037 -3.92549
LeftHand  -0.25398 0.0180481 5.50724
RightShoulder  4.47451 7.77899 33.7117
RightArm  -9.84466 -17.5821 38.0537
RightForeArm  12.45 10.4549 5.97814
RightHand  -0.985738 0.970311 -18.0185
LeftUpLeg  -6.22244 4.31541 6.60311
LeftLeg  57.659 4.55071 8.25766
LeftFoot  6.10406 -0.0086792 -0.274238
LeftToes  1.06245e-005 4.65855e-005 -8.18503e-006
70
root  -52.3565 39.8 2.58728 -7.60182 73.1199 -7.71521
RightUpLeg  -11.7942 -13.7672 3.56464
RightLeg  27.268 -2.17052 -1.4292
RightFoot  -13.7747 -0.170471 -3.63583
RightToes  0.000482159 0.542163 -0.142577
Spine  11.7781 -1.45012 8.36597
Spine1  3.41564 -0.785799 3.52465
HEad  -5.63928 9.91244 -6.31547
LeftShoulder1  7.02929 -10.6703 -43.1146
LeftArm  -11.4828 7.1466 -35.8674
LeftForeArm  37.7581 -29.7224 -4.39415
LeftHand  -0.25398 0.0180481 5.50724
RightShoulder  4.35492 7.53974 33.4873
RightArm  -7.72572 -15.0578 36.6524
RightForeArm  9.85471 12.4086 6.09872
RightHand  -1.18021 1.5511 -19.7716
LeftUpLeg  -10.9946 5.06265 5.16634
LeftLeg  58.2403 3.50523 6.64485
LeftFoot  2.74512 0.354334 -2.96154
LeftToes  1.06245e-005 4.65855e-005 -8.18503e-006
71
root  -51.0643 40.0548 3.14547 -3.95711 72.5854 -4.14701
RightUpLeg  -8.19373 -13.7643 1.93583
RightLeg  24.5704 -1.78002 -0.561181
RightFoot  -14.5347 -0.199262 -3.62212
RightToes  0.000482159 0.542163 -0.142577
Spine  11.2389 -0.773617 7.75438
Spine1  2.92044 -0.116957 2.84544
HEad  -4.41836 9.99817 -6.53797
LeftShoulder1  6.93541 -10.6034 -42.7169
LeftArm  -11.9 8.90742 -35.008
LeftForeArm  38.0267 -31.3124 -4.74237
LeftHand  -0.25398 0.0180481 5.50724
RightShoulder  4.12313 7.11905 32.8686
RightArm  -5.62643 -12.8159 36.173
RightForeArm  6.4696 14.9994 5.87641
RightHand  -1.39829 2.43568 -20.8113
LeftUpLeg  -15.3574 5.993 3.48223
LeftLeg  55.6179 3.84969 6.51114
LeftFoot  1.12101 0.307027 -2.85279
LeftToes  1.06245e-005 4.65855e-005 -8.18503e-006
72
root  -49.7866 40.2804 3.70399 -0.426945 72.1519 -0.605065
RightUpLeg  -4.27582 -12.4714 -0.00648135
RightLeg  21.3596 -2.67531 0.536487
RightFoot  -15.204 -0.221801 -3.53211
RightToes  0.000482159 0.542163 -0.142577
Spine  11.133 -0.145529 6.94535
Spine1  1.93059 0.492511 1.8404
HEad  -3.25409 10.2726 -6.55475
LeftShoulder1  6.87076 -10.6202 -42.2394
LeftArm  -11.9162 10.6805 -34.0646
LeftForeArm  38.2951 -32.2669 -4.95145
LeftHand  -0.25398 0.0180481 5.50724
RightShoulder  3.85768 6.57078 32.3467
RightArm  -3.12367 -10.9126 35.7822
RightForeArm  2.13071 18.1679 5.42779
RightHand  -1.53871 3.20894 -20.8623
LeftUpLeg  -18.8103 7.1378 1.56429
LeftLeg  50.1181 5.40285 7.2982
LeftFoot  0.170371 0.137893 -1.39376
LeftToes  1.06245e-005 4.65855e-005 -8.18503e-006
73
root  -48.5123 40.3987 4.24419 2.15474 71.7876 1.90425
RightUpLeg  -0.506171 -11 -1.5708
RightLeg  18.1713 -3.64303 1.69813
RightFoot  -15.7971 -0.232799 -3.23944
RightToes  0.000482159 0.542163 -0.142577
Spine  11.047 0.448917 6.32287
Spine1  0.947807 1.04686 0.911924
HEad  -2.33712 10.1511 -6.43943
LeftShoulder1  6.92738 -10.7952 -42.0546
LeftArm  -11.7211 12.2815 -32.9243
LeftForeArm  38.3452 -32.4425 -4.9907
LeftHand  -0.25398 0.0180481 5.50724
RightShoulder  3.6646 6.14703 32.0245
RightArm  -1.27033 -9.26129 35.0516
RightForeArm  -1.77736 21.5496 5.10369
RightHand  -1.58926 3.4908 -20.8716
LeftUpLeg  -21.0918 8.77622 -0.118655
LeftLeg  41.6913 7.13766 7.1448
LeftFoot  -1.20659 0.209684 -2.29805
LeftToes  1.06245e-005 4.65855e-005 -8.18503e-006
